<mxfile host="app.diagrams.net" modified="2023-06-03T10:36:31.992Z" agent="Mozilla/5.0 (Windows NT 10.0; Win64; x64) AppleWebKit/537.36 (KHTML, like Gecko) Chrome/113.0.0.0 Safari/537.36 Edg/113.0.1774.57" etag="j_AfQ8OgiPiRCcnVWOmB" version="21.3.7" type="github">
  <diagram name="페이지-1" id="qk3B_uzwAJyLvB47VjEh">
    <mxGraphModel dx="2049" dy="1080" grid="1" gridSize="10" guides="1" tooltips="1" connect="1" arrows="1" fold="1" page="1" pageScale="1" pageWidth="827" pageHeight="1169" math="0" shadow="0">
      <root>
        <mxCell id="0" />
        <mxCell id="1" parent="0" />
        <mxCell id="04RgDgG-Cf-U-bd4b4pi-1" value="회원가입" style="ellipse;whiteSpace=wrap;html=1;" vertex="1" parent="1">
          <mxGeometry x="140" y="340" width="200" height="130" as="geometry" />
        </mxCell>
        <mxCell id="04RgDgG-Cf-U-bd4b4pi-4" value="로그인" style="ellipse;whiteSpace=wrap;html=1;" vertex="1" parent="1">
          <mxGeometry x="140" y="532" width="200" height="130" as="geometry" />
        </mxCell>
        <mxCell id="04RgDgG-Cf-U-bd4b4pi-5" value="게시판" style="ellipse;whiteSpace=wrap;html=1;" vertex="1" parent="1">
          <mxGeometry x="410" y="532" width="150" height="130" as="geometry" />
        </mxCell>
        <mxCell id="04RgDgG-Cf-U-bd4b4pi-6" value="로그아웃" style="ellipse;whiteSpace=wrap;html=1;" vertex="1" parent="1">
          <mxGeometry x="414" y="180" width="150" height="130" as="geometry" />
        </mxCell>
        <mxCell id="04RgDgG-Cf-U-bd4b4pi-7" value="게시글 수정" style="ellipse;whiteSpace=wrap;html=1;" vertex="1" parent="1">
          <mxGeometry x="620" y="812" width="200" height="130" as="geometry" />
        </mxCell>
        <mxCell id="04RgDgG-Cf-U-bd4b4pi-8" value="게시글 삭제" style="ellipse;whiteSpace=wrap;html=1;" vertex="1" parent="1">
          <mxGeometry x="620" y="662" width="200" height="130" as="geometry" />
        </mxCell>
        <mxCell id="04RgDgG-Cf-U-bd4b4pi-9" value="게시글 추가" style="ellipse;whiteSpace=wrap;html=1;" vertex="1" parent="1">
          <mxGeometry x="620" y="500" width="200" height="130" as="geometry" />
        </mxCell>
        <mxCell id="04RgDgG-Cf-U-bd4b4pi-11" value="회원삭제" style="ellipse;whiteSpace=wrap;html=1;" vertex="1" parent="1">
          <mxGeometry x="410" y="330" width="150" height="130" as="geometry" />
        </mxCell>
        <mxCell id="04RgDgG-Cf-U-bd4b4pi-12" value="게시글 좋아요" style="ellipse;whiteSpace=wrap;html=1;" vertex="1" parent="1">
          <mxGeometry x="620" y="972" width="200" height="130" as="geometry" />
        </mxCell>
        <mxCell id="04RgDgG-Cf-U-bd4b4pi-13" value="Actor" style="shape=umlActor;verticalLabelPosition=bottom;verticalAlign=top;html=1;outlineConnect=0;" vertex="1" parent="1">
          <mxGeometry x="10" y="420" width="70" height="182" as="geometry" />
        </mxCell>
        <mxCell id="04RgDgG-Cf-U-bd4b4pi-15" value="" style="endArrow=classic;html=1;rounded=0;entryX=0.018;entryY=0.723;entryDx=0;entryDy=0;entryPerimeter=0;" edge="1" parent="1" target="04RgDgG-Cf-U-bd4b4pi-1">
          <mxGeometry width="50" height="50" relative="1" as="geometry">
            <mxPoint x="80" y="550" as="sourcePoint" />
            <mxPoint x="130" y="500" as="targetPoint" />
          </mxGeometry>
        </mxCell>
        <mxCell id="04RgDgG-Cf-U-bd4b4pi-21" value="" style="endArrow=classic;html=1;rounded=0;entryX=-0.006;entryY=0.603;entryDx=0;entryDy=0;entryPerimeter=0;exitX=1;exitY=0.5;exitDx=0;exitDy=0;" edge="1" parent="1" source="04RgDgG-Cf-U-bd4b4pi-5" target="04RgDgG-Cf-U-bd4b4pi-8">
          <mxGeometry width="50" height="50" relative="1" as="geometry">
            <mxPoint x="570" y="620" as="sourcePoint" />
            <mxPoint x="457" y="590" as="targetPoint" />
            <Array as="points">
              <mxPoint x="580" y="640" />
            </Array>
          </mxGeometry>
        </mxCell>
        <mxCell id="04RgDgG-Cf-U-bd4b4pi-24" value="" style="endArrow=classic;html=1;rounded=0;entryX=0;entryY=0.5;entryDx=0;entryDy=0;" edge="1" parent="1" target="04RgDgG-Cf-U-bd4b4pi-7">
          <mxGeometry width="50" height="50" relative="1" as="geometry">
            <mxPoint x="560" y="600" as="sourcePoint" />
            <mxPoint x="457" y="590" as="targetPoint" />
          </mxGeometry>
        </mxCell>
        <mxCell id="04RgDgG-Cf-U-bd4b4pi-25" value="" style="endArrow=classic;html=1;rounded=0;exitX=1;exitY=0.5;exitDx=0;exitDy=0;entryX=0;entryY=0.5;entryDx=0;entryDy=0;" edge="1" parent="1" source="04RgDgG-Cf-U-bd4b4pi-5" target="04RgDgG-Cf-U-bd4b4pi-12">
          <mxGeometry width="50" height="50" relative="1" as="geometry">
            <mxPoint x="407" y="640" as="sourcePoint" />
            <mxPoint x="590" y="930" as="targetPoint" />
          </mxGeometry>
        </mxCell>
        <mxCell id="04RgDgG-Cf-U-bd4b4pi-31" value="" style="endArrow=classic;html=1;rounded=0;entryX=0.012;entryY=0.65;entryDx=0;entryDy=0;entryPerimeter=0;" edge="1" parent="1" source="04RgDgG-Cf-U-bd4b4pi-13" target="04RgDgG-Cf-U-bd4b4pi-4">
          <mxGeometry width="50" height="50" relative="1" as="geometry">
            <mxPoint x="80" y="550" as="sourcePoint" />
            <mxPoint x="130" y="500" as="targetPoint" />
          </mxGeometry>
        </mxCell>
        <mxCell id="04RgDgG-Cf-U-bd4b4pi-35" value="" style="endArrow=classic;html=1;rounded=0;entryX=0;entryY=0.5;entryDx=0;entryDy=0;" edge="1" parent="1" target="04RgDgG-Cf-U-bd4b4pi-9">
          <mxGeometry width="50" height="50" relative="1" as="geometry">
            <mxPoint x="560" y="602" as="sourcePoint" />
            <mxPoint x="610" y="552" as="targetPoint" />
          </mxGeometry>
        </mxCell>
        <mxCell id="04RgDgG-Cf-U-bd4b4pi-36" value="" style="endArrow=classic;html=1;rounded=0;" edge="1" parent="1" target="04RgDgG-Cf-U-bd4b4pi-5">
          <mxGeometry width="50" height="50" relative="1" as="geometry">
            <mxPoint x="340" y="610" as="sourcePoint" />
            <mxPoint x="390" y="560" as="targetPoint" />
          </mxGeometry>
        </mxCell>
        <mxCell id="04RgDgG-Cf-U-bd4b4pi-40" value="" style="endArrow=classic;html=1;rounded=0;entryX=0;entryY=0.5;entryDx=0;entryDy=0;" edge="1" parent="1" target="04RgDgG-Cf-U-bd4b4pi-11">
          <mxGeometry width="50" height="50" relative="1" as="geometry">
            <mxPoint x="340" y="610" as="sourcePoint" />
            <mxPoint x="390" y="560" as="targetPoint" />
          </mxGeometry>
        </mxCell>
        <mxCell id="04RgDgG-Cf-U-bd4b4pi-41" value="" style="endArrow=classic;html=1;rounded=0;" edge="1" parent="1">
          <mxGeometry width="50" height="50" relative="1" as="geometry">
            <mxPoint x="340" y="610" as="sourcePoint" />
            <mxPoint x="410" y="260" as="targetPoint" />
          </mxGeometry>
        </mxCell>
      </root>
    </mxGraphModel>
  </diagram>
</mxfile>
